<?xml version="1.0" encoding="UTF-8"?>
<svg width="613px" height="698px" viewBox="0 0 613 698" version="1.1" xmlns="http://www.w3.org/2000/svg" xmlns:xlink="http://www.w3.org/1999/xlink">
    <title>Open Doodles - Ice Cream</title>
    <g id="Page-1" stroke="none" stroke-width="1" fill="none" fill-rule="evenodd">
        <g id="Open-Doodles---Ice-Cream" transform="translate(-0, 0)" fill-rule="nonzero">
            <path d="M347.372852,102.023671 C351.335667,101.599899 351.901784,106.974948 352.442389,109.425427 C353.969445,108.461483 355.328854,109.382989 355.674476,107.131968 C360.505904,112.194189 364.375176,118.004528 368.665391,123.503859 C372.780062,128.780089 379.212044,132.976579 382.771532,138.523198 C385.792844,143.231973 380.808347,150.381528 380.191814,155.403131 C379.496925,161.061906 380.974173,167.538519 384.839193,171.852623 C386.647486,173.870236 388.857891,175.271896 391.529937,175.813887 C394.187404,176.352847 396.714883,174.794167 399.054669,175.125788 C400.995987,175.401028 401.081026,176.684468 401.758301,178.591137 C402.68644,181.207123 403.869697,183.677002 406.061272,185.514558 C408.511001,187.566729 411.142349,188.159645 413.010777,190.917495 C414.641702,193.323717 415.566197,195.654158 418.095499,197.324994 C421.47033,199.554191 426.884275,200.227739 426.518607,205.433036 C427.098694,204.972283 427.678782,204.51153 428.259476,204.050171 C429.604307,208.373369 431.455119,212.558947 433.431667,216.623881 C434.357984,218.528731 434.833595,219.540569 434.786216,221.660033 C434.754023,223.056237 433.988672,224.112331 434.81598,225.463671 C436.140158,227.626786 439.680208,227.333359 441.296555,229.082402 C442.9536,230.875702 441.233991,233.308599 443.148582,234.871522 C442.341927,235.11948 440.106617,236.924905 440.947288,238.021619 C442.156056,239.598486 442.247169,237.438402 443.094522,237.698485 C445.040699,238.294433 444.630082,240.723087 446.148028,241.383298 C446.460116,241.519124 446.436052,240.063672 446.419713,239.688972 L446.418051,239.675101 L447.590129,241.961974 C457.455502,261.0546 469.018263,279.243046 478.312876,298.611666 L479.417089,300.941699 C496.919928,338.357276 517.727746,374.78769 540.739287,409.105916 C546.167202,417.201226 552.123573,425.242581 557.142694,433.56948 C562.185504,441.937606 568.471097,449.354518 574.049045,457.356466 C579.786745,465.587577 585.039116,474.155766 590.822979,482.349897 C595.436343,488.885316 601.074425,495.841475 601.000729,504.268407 C600.965089,508.013238 600.42084,512.14971 596.810937,514.162474 C596.724075,512.618344 594.387326,514.326162 593.830321,514.705071 C591.418859,516.345595 592.730282,516.164325 590.131127,515.590808 C585.912587,514.659602 582.31058,515.920004 578.408507,513.522269 C570.131787,508.43701 561.974729,503.208675 553.549191,498.356217 C535.338706,487.869234 517.30984,477.130655 500.416852,464.596958 C470.88586,442.686329 438.801269,423.052185 411.662302,398.128473 C384.543379,373.223555 356.083878,348.515063 323.903315,330.300159 C321.745756,329.079164 315.563424,327.247064 316.133185,324.334619 C316.633092,321.782896 322.193425,318.204784 324.143247,316.437553 C330.91174,310.304687 337.960862,304.501017 344.489424,298.105036 C356.541874,286.297632 368.505032,273.266806 378.172747,259.413294 C382.875401,252.673567 385.275322,245.177842 388.020865,237.515396 C390.443868,230.75142 392.684037,222.42452 388.750985,215.732687 C386.929937,212.63291 384.416428,211.375539 380.900067,211.610766 C377.989913,211.805373 378.120508,212.401321 376.967016,209.314275 C375.72484,205.991396 374.714698,202.135621 371.383601,200.211976 C367.932842,198.218613 365.582122,200.34414 362.787377,202.339322 C359.572298,197.696628 355.628312,189.663761 349.146522,189.219377 C342.378636,188.755593 338.534875,197.116443 336.197519,202.145321 C329.286889,217.014915 320.295234,230.905408 310.62509,244.14721 C300.143431,258.500882 289.427308,273.101905 277.878411,286.617734 C275.432933,289.479253 272.657019,293.655131 269.211726,295.390837 C265.67775,297.172617 262.745121,295.499356 259.757824,293.449611 C252.717814,288.620797 245.87157,283.661639 238.542427,279.240834 C230.424244,274.343513 222.078278,269.857839 213.798521,265.244246 C210.146098,263.209051 206.680153,260.757966 202.915965,258.93011 C199.409323,257.226536 195.589859,256.383236 192,254.892457 C205.18286,250.962112 219.068507,256.111028 231.546151,260.194756 C238.022475,262.31422 244.794613,264.520985 251.708887,263.951106 C257.688948,263.458828 263.115648,260.256594 267.845636,256.75972 C276.396303,250.438309 277.067504,240.943157 274.279441,231.346155 C271.071042,220.300205 266.163687,209.676815 262.455989,198.781823 C260.769788,193.826302 259.608399,188.562804 263.446693,184.280831 C266.881659,180.449306 271.326767,179.97764 276.01545,181.486 C287.383336,185.144137 297.467134,188.578567 309.652609,188.231183 C319.180009,187.960187 331.29806,185.256294 337.716679,177.513823 C341.234862,173.270045 341.369102,167.434849 341.383073,162.170745 C341.400688,155.93239 341.007079,149.658267 340.134215,143.482356 C338.57618,132.462476 334.5344,121.428045 339.602721,110.728267 C340.790837,108.218981 344.09946,102.374086 347.372852,102.023671 Z M52.1100023,187.913051 C55.0885903,183.792295 63.2396223,174.197044 69.4630123,176.296513 C70.5496553,176.663364 71.3349913,177.747077 72.0513523,178.553547 C72.5589773,179.213277 73.0623663,179.875412 73.5621253,180.541156 C73.8725083,181.416185 74.4297453,181.674184 75.2344423,181.315752 C77.4168033,184.338362 80.4965703,186.620654 81.7514123,190.333063 C82.9935493,194.011193 86.3289693,197.578142 88.2959383,200.951966 C89.8176013,203.561418 93.2483213,210.527293 92.9857363,213.79046 L92.9857363,213.79046 L92.9857363,222.118638 C92.6759583,225.355946 86.6248453,231.146619 84.4969373,233.336297 C79.2131663,238.77531 73.4737903,239.471213 65.6434263,238.777204 C59.0098223,238.18904 50.4183243,235.977712 45.9277543,230.705285 C41.6180903,225.646354 41.6791983,217.805972 42.3169053,211.575524 C43.2075173,202.875148 47.0240783,194.949368 52.1100023,187.913051 Z M72.5202543,189.293853 C71.3059493,187.038022 68.6486353,186.480529 66.3138053,186.74815 C63.9801853,187.015169 61.3016953,187.211224 59.1616863,188.252238 C57.1856413,189.214469 56.1855183,190.898976 53.7224213,190.333063 C54.6977373,192.014563 52.9497913,192.985815 52.6980963,194.500728 C52.3744033,196.446841 53.0018243,198.191487 54.2875243,199.668512 C56.9490733,202.727205 60.9247583,202.667667 64.6239423,202.965959 C67.7513683,203.217943 71.5981813,203.735744 73.4356723,206.66634 C74.6209363,208.555922 73.5457893,209.917479 74.1012113,211.81548 C74.5096103,213.213723 76.2182293,214.017186 76.9654473,215.21757 C79.4684773,211.533426 79.3807473,203.640723 77.8542433,199.700987 C77.1330423,197.840272 75.7692933,195.417253 74.6887003,193.782663 C74.3353593,193.247422 73.5004113,192.609342 73.2783633,192.167317 C72.8941663,191.404147 72.9401493,190.072659 72.5202543,189.293853 Z" id="Accent" fill="#FF3B30"></path>
            <path d="M292.652982,2.51768848 C311.590972,5.93746258 329.117834,17.435658 343.448122,29.8316576 C359.80046,43.9766187 370.356617,61.029448 378.707509,80.782354 L380.079696,84.039308 C381.45666,87.294956 382.873551,90.534163 384.560716,93.644218 C387.057187,98.245314 390.263468,102.524121 392.099269,107.461439 C393.73608,111.864436 394.011511,116.640609 391.095827,120.574712 C389.04587,123.340822 384.840394,123.965408 383.047667,126.495253 C382.142507,127.77108 382.233508,128.984509 384.222798,129.364955 C386.277002,129.756912 387.256177,127.46636 388.733432,126.547352 C392.408674,124.259224 397.595751,126.208707 401.312247,127.50816 C410.124819,130.589289 417.023328,136.12272 422.297161,143.793434 C426.783326,150.318367 429.93019,157.632612 432.914182,164.943082 L434.027843,167.682782 C436.00689,172.557167 437.896192,177.401501 439.076661,182.528924 L439.289541,183.493709 C439.725135,185.558296 440.332417,191.154125 437.070322,188.701822 C435.747162,187.707695 433.85676,195.251796 434.213485,196.453109 C435.454137,200.631352 439.878017,204.548492 442.481262,207.930706 C448.603227,215.88312 452.702535,224.791495 457.02146,233.784683 C465.824396,252.115086 475.56886,269.941592 485.027805,287.931897 L486.797712,291.307162 C507.176556,330.282288 529.447623,367.760468 552.807672,405.013894 C564.381832,423.470981 576.31393,441.613049 588.686475,459.546114 L594.145793,467.463391 C597.781488,472.746153 601.401994,478.041569 604.962372,483.370642 L605.717287,484.509957 C609.98116,491.006819 613.915119,498.198649 612.812149,506.205888 C611.743186,513.968684 607.130631,520.204244 599.672766,522.743177 L598.31467,523.201409 C594.628085,524.427833 590.457092,525.625803 586.654718,525.254242 C582.13375,524.81269 578.126965,521.874107 574.34337,519.556564 L573.952748,519.319162 C556.037007,508.52249 538.118839,497.736116 520.192178,486.95883 C500.143365,474.906322 481.807197,460.59537 462.678711,447.194339 C452.946419,440.375994 442.910182,434.230699 432.768991,428.058749 C430.485463,426.66903 420.124048,416.710793 417.927275,418.070222 C427.740255,451.988081 422.080577,486.478426 420.068841,520.98331 C419.052052,538.429308 418.89735,555.98435 418.445983,573.453974 C418.226366,581.946161 418.241533,590.445011 418.594012,598.933563 C418.771768,603.203888 419.084206,607.459675 419.38815,611.722125 C419.656908,615.490843 418.645579,619.657576 419.121213,623.294228 C419.730316,627.95227 428.978481,628.866431 426.136811,634.844523 C424.230636,638.854958 417.55599,639.467427 413.980243,641.158232 L414.321674,641.551034 C415.913601,643.367024 418.239985,645.76643 420.708884,645.927741 C423.097366,646.083433 424.94166,644.012183 427.083226,643.228876 L427.425625,643.106946 C429.286668,642.464028 431.669337,641.989077 432.799324,644.07761 C434.05575,646.400876 431.42399,648.98282 430.382935,650.783275 C433.922281,651.467836 436.370218,649.354785 439.562545,649.548643 C442.921709,649.752799 443.073985,653.058076 445.281678,654.970605 C447.806055,657.157564 452.214161,657.628276 455.326408,658.548495 C458.947049,659.618348 462.58589,660.945669 465.883172,662.803675 C471.77824,666.125309 476.840949,672.39964 479.019522,678.821788 C481.238701,685.364964 477.869413,691.042853 472.766273,695.113609 L472.500791,695.322728 C470.544262,696.843907 467.7396,698.612254 465.144848,697.791993 C462.179417,696.854205 461.715917,694.440675 458.101949,694.619993 C454.856234,694.780532 451.774928,696.076956 448.512226,696.242947 C443.716454,696.487693 438.924929,695.614121 434.123697,695.798286 C415.418169,696.516563 396.710378,696.695507 378.033635,695.030281 L376.032676,694.844747 C371.028207,694.363132 366.123234,693.968752 361.189747,693.811243 C357.353736,693.68887 357.032805,690.827649 356.383055,687.236431 C354.812978,678.561897 358.284984,670.022458 356.565665,661.593275 C356.67972,662.149405 353.964239,660.702135 353.637241,660.427099 C351.643098,658.749016 350.976968,656.364565 350.383639,653.887424 C348.802035,647.290199 348.818415,640.568177 349.307396,633.840097 C350.418826,618.568337 353.260495,603.438335 353.027532,588.086003 C352.909837,580.348045 353.144013,572.62826 353.14644,564.893331 C353.14826,557.787834 353.791336,550.775631 353.851397,543.71981 C353.982439,528.249952 355.610757,512.953354 356.065157,497.499852 C352.844922,500.632474 351.13713,504.999729 349.092026,508.908994 C346.576142,513.715458 343.770267,518.471639 340.697454,522.944304 C334.353446,532.18042 325.841179,539.696654 317.023147,546.510758 C300.195175,559.514381 281.913002,569.584692 261.295733,575.099948 C238.97674,581.069559 216.405369,585.100592 193.395978,587.365094 C188.072399,587.889116 182.689365,588.172633 177.353652,587.654063 C173.859806,587.314812 168.180715,584.492363 164.860985,585.924488 C161.088069,587.552288 160.329117,591.467005 155.381677,590.369285 C153.494308,589.950068 152.126861,588.68878 150.474277,587.83944 C148.04272,586.588451 147.946259,587.451724 145.625117,587.611051 C143.037039,587.788552 141.485769,586.496368 139.230148,588.579735 C137.314873,590.349294 137.500516,591.588772 139.250169,593.245046 C141.709025,595.572552 145.645138,595.963297 148.106421,598.39379 C150.50097,600.75825 150.072051,603.664301 146.373149,603.699438 C142.650586,603.734574 139.34299,601.085385 135.705969,600.740076 C136.481301,611.499794 139.718522,623.5208 136.128822,634.077573 C134.463497,638.974907 130.88957,642.129944 125.560531,642.096019 C116.643004,642.039073 108.820527,633.83525 103.450233,627.44521 C100.481162,623.912756 98.0744803,619.944122 95.2079373,616.324432 L93.6683543,614.388132 C91.2281183,611.307145 88.8420623,608.125034 87.4558343,604.428222 C85.6709943,599.666588 86.1921293,594.889203 87.1901103,590.001561 C88.4253023,583.951984 89.5731333,577.84122 91.0661623,571.849194 C93.9606123,560.229838 99.7840923,549.623389 102.724043,538.039169 C103.836079,533.656163 103.822126,528.512872 106.628608,524.755058 C109.600105,520.775519 114.222975,520.520475 118.80823,520.774913 C124.483075,521.089932 130.153673,521.717547 135.799397,522.359701 C139.363617,522.764986 147.175174,525.336026 150.076297,523.144826 C151.074886,522.390598 151.076706,520.413853 152.244556,519.731716 C153.370546,519.07381 155.18936,519.546339 156.419699,519.637816 L162.529103,520.104892 C166.609155,520.414795 170.698823,520.698582 174.770426,520.81732 C197.470413,521.481283 221.423791,517.943377 241.691007,507.398114 C250.573785,502.776286 257.457592,495.647711 264.563056,488.740174 L266.641496,486.726735 C273.726464,479.795307 279.805455,472.283183 281.730999,462.281328 C283.557093,452.798043 282.866089,441.456751 279.833317,432.278187 C277.315235,424.655759 269.32428,419.595474 262.294073,415.537299 L258.763469,413.512138 C248.640741,407.664163 237.922426,402.773969 227.031677,398.518683 L224.961789,397.717667 C223.275034,397.072703 221.326499,396.396242 219.545523,396.714959 C217.105473,397.151745 215.465628,399.266008 213.246408,400.199555 C210.606762,401.309391 207.369541,401.314843 204.584899,401.963055 C201.884585,402.59067 199.253433,403.454549 196.502765,403.869526 C187.841862,405.17625 175.670733,404.133052 168.513173,398.600833 C156.812825,389.55918 163.882417,376.761531 167.640773,365.756462 C163.667047,365.621973 160.357631,366.551279 156.564694,364.850782 C152.785711,363.156343 149.8312,360.155787 148.108241,356.397973 C144.973548,349.560242 146.784475,341.70294 147.709049,334.572605 C148.127048,331.349112 148.604502,328.150457 149.834234,325.122034 C150.786715,322.776959 152.351331,320.542141 152.928887,318.061972 C153.565289,315.330393 152.74021,315.171067 150.461536,313.864949 C146.948884,311.85125 144.421473,309.534649 142.271414,306.000377 C138.060478,299.077228 137.955523,291.520406 141.406294,284.237407 C142.803469,281.289556 146.135332,277.237321 145.756159,273.794526 C145.441234,270.931467 142.298021,268.68092 140.305605,266.781859 L140.103761,266.586648 C134.00849,260.598257 127.526767,255.069067 120.767186,249.844597 C117.607618,247.402593 114.127726,245.186556 111.256937,242.41257 C109.152985,240.380698 107.015667,235.960132 104.13881,234.891491 C101.332764,233.84907 99.4401953,236.876319 97.4891143,238.626558 L97.3349423,238.761984 C94.2075293,241.448733 91.2111573,244.540766 87.8034603,246.87009 C81.6912013,251.047727 74.1126083,250.266238 67.2104583,248.931647 C60.0001173,247.537082 53.3127303,245.081751 47.1652853,241.030727 C44.7228093,239.421101 41.8702193,236.152173 38.8629283,235.890465 C35.6505803,235.611188 32.1609813,238.804391 29.8653203,240.721161 C24.0113513,245.609929 22.1585313,253.139959 18.8226333,259.753108 L18.5817583,260.223869 C14.6838663,267.732832 13.0282483,275.526525 14.0887173,283.967824 C15.0157533,291.345224 17.8022803,296.970416 21.9499933,302.909298 L22.3194873,303.434184 C23.2185813,304.703347 25.3255653,307.099915 23.7858223,308.502961 C21.9020943,310.220421 18.0418163,306.77702 16.7768983,305.664761 C4.21203627,294.614256 -2.92914373,277.963076 1.14953727,261.293722 C3.26840127,252.632261 7.34800827,244.597725 12.1165823,237.108853 L13.2522173,235.346996 C15.1547333,232.425661 17.1543753,229.637817 20.4521393,228.14039 C24.6388083,226.238766 29.3830133,226.465337 33.8554263,226.009165 L33.6431583,224.950631 C30.7226163,210.102463 30.0147883,194.083435 39.2991283,181.193465 C46.5931903,171.066208 61.5307603,162.205086 73.3694303,170.41739 L73.2951013,168.863208 C72.7459303,158.266616 71.4309603,148.141387 74.2636703,137.661467 C75.5953243,132.735659 77.4189913,127.942523 79.6606583,123.35839 C81.8568243,118.865734 84.8895963,115.056427 86.6641223,110.379605 C93.5545753,92.222241 106.676399,75.972111 120.768237,62.840969 L121.439989,62.218039 C135.941359,48.8357876 150.169725,32.5099253 168.435518,24.1376882 L170.92326,23.0035154 C189.182349,14.7266922 207.797695,7.37935958 227.560922,3.58269518 C249.006303,-0.537390421 271.049259,-1.38309542 292.652982,2.51768848 Z M392.985622,650.193826 C387.076601,652.388055 381.045031,654.330874 375.061994,656.313071 C370.969967,657.667653 364.897749,657.788208 364.124844,662.583162 C363.157803,668.586698 364.335967,674.682922 364.308667,680.711902 C368.681335,679.002193 374.03581,679.714116 378.673315,679.842131 L379.167369,679.853475 C385.127958,679.960703 391.104928,680.41324 397.047923,680.878499 C408.460707,681.772668 419.816464,681.394646 431.238954,682.462075 C436.910159,682.99155 442.585004,683.481041 448.260456,683.964474 C453.22913,684.387327 458.999223,685.704954 463.96001,684.756868 L464.221845,684.702564 C466.439859,684.209636 471.494607,682.318475 470.511502,679.439104 C469.741806,677.185825 463.821502,675.773956 461.639381,675.093328 L461.47082,675.039742 C456.701742,673.489485 451.777961,672.378437 446.956709,670.995988 L445.646049,670.621186 C443.606081,670.048457 441.55469,669.566286 439.407843,669.769837 C437.195297,669.97884 434.864449,671.630267 432.622175,671.440044 C429.306692,671.159555 427.598293,666.995852 425.16613,665.159654 C421.294326,662.235429 418.423536,663.797803 415.455072,667.02069 C413.260119,669.403324 411.169514,673.008475 407.568287,673.221719 C402.986672,673.49312 402.095465,669.565074 404.116909,666.233748 C405.979403,663.165341 411.049392,660.019391 411.321183,656.194333 C411.493479,653.776562 407.626528,647.308373 405.401241,646.388154 C401.658659,644.841531 396.369053,648.936779 392.985622,650.193826 Z M359.144643,366.93112 C358.684599,379.290817 348.321187,388.739532 339.067629,395.738366 L338.349012,396.278779 C326.301039,405.289535 315.186739,415.531289 300.817624,420.659436 C295.285955,422.633757 288.378345,422.064906 286.161552,428.291378 C285.295826,430.725506 286.082077,431.620282 287.020605,434.07016 C288.48876,437.9037 289.37208,442.061346 290.06915,446.096013 C292.438826,459.824179 290.134671,473.803756 281.886308,485.233495 C277.676658,491.066097 272.34431,496.058999 266.799052,500.615794 L266.104852,501.183152 C260.326266,505.881176 254.860117,511.361296 248.489415,515.247541 C234.901092,523.536176 219.806393,528.294781 204.137779,530.585333 C195.98891,531.776954 187.806675,532.838325 179.576512,533.258755 C175.308548,533.476845 171.033304,533.516828 166.762913,533.329634 C164.854918,533.246033 157.759845,531.633983 156.381478,532.727463 C155.354043,533.541783 154.878299,538.340049 154.656231,539.922564 L154.634859,540.06983 C154.184099,543.041914 153.828587,545.973408 153.214631,548.920048 L152.580854,551.935107 C151.525224,557.044982 150.623721,562.520794 152.138388,567.49345 L152.341896,568.151133 C152.79528,569.571381 153.298167,570.699875 154.688246,571.204011 C155.700788,571.571735 157.495942,570.92534 158.52001,570.81993 C160.836905,570.581848 163.023971,570.48916 165.354212,570.735723 C173.000753,571.54508 180.509579,573.499409 188.238021,572.966906 L192.73162,572.655636 C207.710763,571.609085 222.690088,570.437777 237.531031,568.094409 C245.47181,566.840391 253.091051,564.46745 260.900181,562.634887 L262.760497,562.197018 C269.579305,560.583792 276.360857,558.850771 282.728981,555.842592 C296.339144,549.413174 308.917959,540.908265 320.1542,530.945182 C332.149999,520.308443 340.090778,507.699805 347.59475,493.629964 L348.284634,492.328322 C354.569751,480.390243 359.73512,468.259867 359.456474,454.511262 L359.418651,453.044307 C359.153476,444.306053 358.260316,433.895548 363.194204,426.369156 C365.576013,422.736744 370.380278,419.370281 374.855725,421.291292 C382.979113,424.777704 375.305271,431.682074 372.206978,435.46412 C367.743665,440.913343 368.343667,449.210461 367.88138,455.874325 C367.334159,463.737685 365.566912,470.634785 363.843953,478.239466 C362.158001,485.682397 365.559026,494.512017 365.895124,502.104582 C366.260343,510.33809 366.020099,518.580079 365.928491,526.816615 C365.745275,543.198817 366.506046,559.537402 366.449626,575.916575 C366.419899,584.41179 366.637088,592.948807 366.099574,601.432512 C365.639357,608.713016 364.208593,615.696762 362.885625,622.824673 L362.639095,624.162954 C361.277715,631.618001 359.293885,640.545156 359.752532,648.123182 C378.36595,641.038282 396.483715,632.669074 415.384091,626.339614 C409.489022,621.199957 409.226939,613.936345 408.751305,606.687272 C408.125215,597.127655 406.551499,587.649823 405.864742,578.090812 C404.508821,559.212084 404.889814,539.35195 406.495684,520.494425 C408.220464,500.248393 411.278109,480.070211 411.907232,459.738761 C412.196801,450.370526 411.516111,440.979566 410.060545,431.722813 L409.548703,428.547305 C408.315177,420.760373 407.019619,411.517825 403.10012,404.858807 C399.042673,397.965342 391.584808,393.585972 385.360922,388.890371 C376.259572,382.024167 367.829813,374.302565 359.144643,366.93112 Z M132.824866,533.828212 L130.052644,533.980452 C124.963494,534.264475 119.844339,534.598378 114.812057,535.359084 C108.171991,536.362904 108.292719,543.152776 106.625574,548.703775 C102.583901,562.160541 97.1638593,575.364686 94.6400883,589.238246 C93.5517123,595.219973 96.4364553,599.317038 99.7937993,604.02112 C103.997455,609.910159 108.370374,615.784053 113.130958,621.239941 L113.794638,621.989679 C116.808966,625.343102 120.211031,628.391897 124.521295,629.951429 C129.7654,631.848813 131.76925,629.74182 130.559539,624.573084 C128.962162,617.749893 126.551839,611.159331 126.835763,604.052622 C126.939505,601.465225 127.692389,598.684577 125.826255,596.518821 C124.532215,595.017028 122.314816,594.510574 120.626437,593.597019 L120.384323,593.459701 C117.603867,591.81442 113.683917,587.20684 118.953225,586.19286 C122.63696,585.483461 126.551839,587.960601 130.117879,588.419196 L130.300885,588.022364 C131.426207,585.627063 132.435333,584.158517 130.178546,581.837721 C128.848713,580.470417 126.972872,579.797367 125.663666,578.377964 C123.69743,576.244922 120.61491,570.415252 124.831306,568.946778 C128.860847,567.543126 132.255804,573.152283 135.499093,574.384492 C139.614781,575.948077 142.165246,573.326149 142.753721,569.393257 C143.510246,564.339625 142.678493,559.059421 143.281529,553.94339 C143.871824,548.927318 145.623904,544.762402 146.968297,539.960179 L147.32106,538.698392 C148.080404,535.897066 148.458641,533.332349 144.860099,532.703837 C141.068376,532.041691 136.669977,533.616786 132.824866,533.828212 Z M342.876633,106.211055 C332.670485,118.985684 339.797605,136.338721 341.159099,150.799653 L341.335449,152.73718 C342.008567,159.820521 343.055603,167.991501 339.989463,174.501733 C336.893597,181.074727 329.05838,184.355771 322.454715,186.185911 C313.548108,188.65457 303.982045,188.545525 294.918916,187.046761 C290.172285,186.262242 285.61615,184.921594 281.122503,183.22352 L280.59123,183.017911 C276.157379,181.265228 271.562484,178.6183 267.057333,181.650242 C261.009383,185.721258 262.877944,193.887521 264.205957,199.839563 C266.281685,209.14 269.838335,217.842378 273.077099,226.75574 L273.51661,227.972582 C276.331585,235.817768 278.610866,245.660296 272.692744,252.680374 C266.781902,259.691365 256.978629,264.078611 247.854833,263.715128 C228.93929,262.9609 211.672085,248.857133 192.342183,254.626223 C195.973743,256.127409 199.813394,257.010069 203.361841,258.72874 C207.645578,260.803019 211.611417,263.560042 215.770179,265.867556 L222.955849,269.847952 C228.540728,272.949081 234.104709,276.08423 239.566429,279.4055 C246.616001,283.692182 253.28094,288.388389 260.008974,293.138513 C268.393233,299.057842 272.808619,292.501811 278.187406,286.10753 C289.929008,272.150975 301.106402,257.371129 311.774188,242.580379 C321.049047,229.721543 329.657776,216.29628 336.365183,201.931411 L337.050405,200.473897 C339.512873,195.30753 343.435119,188.162601 349.82853,189.085903 C356.06273,189.985525 359.698538,197.508422 362.921806,202.111941 C365.170753,200.500498 367.098769,198.345646 370.135181,199.232546 C372.653492,199.967388 374.395258,202.55115 375.509721,204.755072 C376.275953,206.269587 376.7983,211.375319 378.0796,212.14348 C378.990826,212.689917 382.474965,211.51526 384.028055,211.873897 C389.342535,213.102471 391.041833,219.933538 390.987839,224.675181 C390.912611,231.210614 388.181964,237.750289 385.943937,243.802289 C380.927942,257.368706 372.33438,267.97152 362.860532,278.691861 C353.663961,289.09792 344.055529,298.572247 333.746939,307.825275 L332.336856,309.085747 C329.660809,311.468381 327.010849,313.877671 324.402144,316.333608 C322.262398,318.347307 318.874114,320.442183 317.199689,322.807855 C314.10079,327.184803 322.391014,329.171846 325.47596,330.773597 C338.321242,337.444105 350.190414,346.160486 361.537093,355.104831 L367.494049,359.821617 C377.947635,368.111224 388.391105,376.478095 398.42993,385.244025 C409.76142,395.138652 420.463787,405.685127 432.396492,414.886712 C444.655588,424.339707 457.50134,433.068158 470.098962,442.063163 C482.709324,451.067256 494.979341,460.540242 507.573929,469.555845 C519.882773,478.366079 533.095564,485.918661 546.042631,493.741432 C552.814952,497.834257 559.623067,501.867106 566.426936,505.907226 C571.928878,509.173731 577.900387,514.25099 584.422758,514.66415 C587.254543,514.843363 590.015772,515.438274 592.510012,515.292031 L592.701881,515.065279 C593.713414,513.899235 595.462968,512.315693 595.935365,513.318173 C596.179885,513.836486 595.701162,514.371372 594.995279,514.825835 C596.662716,514.244232 598.152139,513.05485 599.387022,510.808801 C602.053362,505.958113 600.948605,499.285162 598.614117,494.572598 C595.764561,488.821077 591.306708,483.532998 587.725501,478.210387 C583.607386,472.089931 579.784722,465.792579 575.719995,459.64062 C571.82271,453.742494 567.491045,448.297511 563.143,442.739242 C558.734894,437.10343 555.390291,430.75095 551.461459,424.783762 C543.06446,412.027308 534.430251,399.50106 526.468845,386.458666 C508.799903,357.511894 492.916141,327.65906 477.747573,297.356427 L476.23306,294.324681 C474.856513,291.562812 442.734853,234.660679 443.633946,234.169976 C440.106734,225.364588 434.886289,217.301917 431.550179,208.426861 C430.574644,205.831589 430.02985,201.694541 427.450264,200.095819 C425.755212,199.045352 423.498985,199.675996 421.629817,199.110779 C419.766109,198.547985 417.801693,197.205519 416.465187,195.821253 C414.019677,193.288379 413.226752,189.811659 410.343222,187.60592 L409.713511,187.134 C406.296231,184.621903 403.644464,183.395154 401.975343,178.910182 L401.525283,177.699811 C400.592828,175.242312 400.144111,174.782542 397.112422,175.32478 L396.40424,175.459512 C391.842645,176.370038 388.137677,175.255356 384.99085,171.692005 C379.66181,165.659391 379.072728,157.159934 381.688107,149.877542 L381.893617,149.320612 C383.129859,146.045144 384.943824,142.317592 383.27153,138.944564 C381.629259,135.632017 377.64158,133.254229 375.114775,130.614127 C368.727693,123.941176 363.728685,116.131732 357.739582,109.130434 L356.878782,108.123817 C355.734349,106.776854 354.619813,105.399881 353.735522,103.863558 C353.034205,102.64407 352.619846,100.546165 350.993348,100.200855 C348.193539,99.60656 344.285334,104.447554 342.876633,106.211055 Z M245.604373,444.307804 C246.794251,446.400717 244.982668,450.336068 244.330547,452.382619 C239.433556,459.593414 234.284112,466.369491 227.390608,471.840206 C220.12907,477.602942 212.53478,482.272257 204.427066,486.744082 L203.409722,487.29914 C189.22732,494.953214 170.570668,501.529528 154.35305,498.038948 L153.998234,497.957984 C149.264015,496.817457 142.17546,492.744664 146.180246,486.989741 C148.243674,484.024981 152.67104,484.798083 155.805115,484.961253 L157.407344,485.044358 C161.804662,485.263722 165.787677,485.330192 170.106762,483.813643 C178.995561,480.691132 187.946409,477.746243 196.625946,474.071001 C205.032954,470.510159 212.406424,465.627097 220.119337,460.830136 C227.051494,456.518094 232.408161,451.39318 238.435366,446.186703 L239.794634,445.023339 C241.562582,443.542951 244.126226,441.706667 245.604373,444.307804 Z M208.947814,433.991063 C204.237059,438.283078 198.799339,438.220491 192.892883,437.832672 L192.119838,437.780574 C188.96891,437.564381 181.671958,435.698493 186.742783,431.790444 C189.391886,429.748899 210.174567,428.344875 208.947814,433.991063 Z M198.10505,267.245999 L198.148111,267.21824 C199.047348,266.645907 200.021828,267.255513 201,268.391933 C200.395142,269.63886 197.870261,268.55037 197,268.739275 C197.111314,268.500877 197.22461,268.289743 197.339706,268.104224 L197.564447,267.893371 C194.744012,270.609199 191.503757,272.773137 187.863702,274.232524 L187.415222,274.407195 C183.852168,275.754996 182.71216,275.263374 182.846971,279.423025 L182.896441,280.658561 C183.071293,285.313913 182.962839,289.172556 180.788043,293.612253 C179.699667,295.833743 175.679833,298.831877 176.439391,301.330826 C177.509865,304.855468 188.304408,308.417533 191.771057,309.730602 L191.949663,309.79878 C199.741806,312.800548 208.833449,312.861735 216.188179,308.621093 C224.731387,303.69468 225.487305,294.76389 222.26889,286.121464 C221.925511,285.199427 220.676973,283.640689 220.983951,282.634445 C221.547553,280.788555 223.869301,281.055109 225.200954,281.759661 C228.092977,283.289927 229.301475,287.943122 229.923924,290.847355 C231.586823,298.604699 228.53221,307.006621 222.725717,312.351646 C219.775453,315.067474 216.085044,316.881862 212.321228,318.189797 C210.184516,318.932515 207.943456,319.519541 205.686622,319.746718 C203.863561,319.929672 201.561834,319.355368 199.821281,319.874543 C196.834058,320.764647 196.625459,324.375979 195.908111,327.118861 L195.848768,327.339283 C194.478894,332.283265 193.906799,337.634954 193.727223,342.749773 C193.436019,351.022658 194.42126,361.563074 199.180025,368.576488 C210.283404,384.940516 231.757298,390.620552 248.522782,399.04186 C257.435456,403.518765 265.698986,409.143067 273.634305,415.155084 C274.41813,415.748774 275.590834,416.913133 276.531788,417.375968 L276.929614,417.576278 C279.470046,418.888036 277.027773,418.324302 278.971231,417.337197 C280.538881,416.541168 281.880848,414.812198 283.500672,413.910759 C287.231728,411.834056 291.422037,410.713315 295.216794,408.75111 C303.67264,404.378302 311.194108,398.995676 318.698536,393.23613 L319.677353,392.482799 C327.701246,386.289646 335.828274,380.63566 343.147817,373.586503 C346.234583,370.615025 349.710229,368.165146 352.841282,365.320888 C355.995389,362.455426 351.958569,361.265623 349.287982,359.156813 C340.197553,351.978013 331.221179,344.571431 321.514367,338.22622 C318.275932,336.108929 315.420309,333.254372 312.041732,331.383037 C308.513913,329.429313 306.420275,331.179486 303.641093,333.664502 L301.380145,335.686464 C299.126212,337.689514 296.863919,339.622451 294.328621,341.364901 C289.864701,344.433913 284.675196,345.911474 280.187009,348.832669 C283.068112,351.848977 290.094024,352.858249 291.113239,357.426631 C292.147015,362.056806 285.252145,365.669832 282.029483,367.458171 C276.338865,370.615631 270.062198,372.533006 263.721223,373.902734 C258.444964,375.042254 250.623094,373.326612 246.394564,377.30918 L246.189217,376.883559 C245.0701,374.603481 244.172259,373.287806 246.043299,370.988202 C248.024702,368.552862 251.557981,368.133644 254.354756,367.197068 C261.908476,364.666011 269.348141,361.294096 276.656763,358.133001 C275.686689,355.863046 273.262412,354.309154 271.413871,352.830988 C268.775439,350.719755 266.558039,348.380738 264.410407,345.756387 C260.721576,341.249555 257.376238,336.472836 253.898958,331.805152 L252.229301,329.586746 C250.717432,327.606613 249.188609,325.909763 246.406698,327.023658 C243.678477,328.116532 241.014564,330.950492 238.392511,332.417754 L233.865967,334.972061 C229.664162,337.327291 225.571052,339.475787 220.746134,341.03716 L220.344105,341.160488 C217.175012,342.087941 207.474025,344.015635 210.209996,337.727642 C211.059342,335.776341 213.896765,334.972437 215.645204,334.118857 C218.875146,332.541338 222.094774,330.932924 225.207021,329.131257 C231.600169,325.430995 237.238007,320.649975 243.219223,316.345724 C249.817429,311.598024 256.527869,306.989658 262.722635,301.713089 C256.558809,297.629958 249.720967,294.640306 243.346625,290.905513 C237.489998,287.473898 231.59326,284.342182 225.562972,281.281879 L223.749785,280.365702 C218.775424,277.862777 213.724812,275.204378 209.126331,272.038591 L208.21282,271.398564 C206.432471,270.128309 200.630038,265.14701 198.10505,267.245999 Z M434.220851,244.059191 C438.036037,245.257901 436.5468,256.828218 436.512265,259.80707 L436.48455,262.689072 C436.460766,265.090658 436.420951,267.491625 436.257798,269.888871 C436.053619,272.903569 435.204184,276.599339 435.833081,279.586089 C436.936376,284.823231 443.145369,282.038189 444.947237,286.2036 C446.659436,290.163049 437.324741,287.059041 435.581643,288.419361 C432.97881,290.450424 433.605283,298.936173 433.233277,301.907127 C432.417165,308.433505 430.84977,315.211411 430.340231,321.718347 C429.938536,326.854634 434.068171,326.172955 438.269904,325.80113 C441.87364,325.482163 445.833024,324.626115 449.444637,325.106692 L449.719855,325.149465 C452.592698,325.658696 456.269841,328.221352 452.176521,329.945277 C445.64661,332.695904 432.428587,327.172545 428.919749,335.208246 L428.801312,335.494095 C428.175444,337.088325 425.262404,355.576285 421.601716,346.449563 C420.071885,342.634713 423.818001,336.649668 419.823477,333.726712 C418.515396,332.769033 416.602039,332.875697 415.039899,332.795817 L414.768068,332.77953 C411.376387,332.543104 407.966011,332.440141 404.564411,332.363897 L402.864469,332.327508 C398.911144,332.246095 395.358907,331.450195 393.832106,335.780254 C392.642776,339.154019 392.774856,342.929378 391.824846,346.381517 L391.753326,346.629524 C390.965974,349.24431 388.696002,353.367948 386.34472,349.266198 C384.802087,346.575112 385.8951,341.936936 386.25276,338.899976 L386.28595,338.601749 C386.442871,337.087717 387.345623,333.954545 386.196887,332.682929 C385.052002,331.415261 382.124649,331.96173 380.46366,332.145013 L379.597958,332.225574 C374.997411,332.685896 367.089528,334.555762 363.768052,330.620272 C360.930467,327.257608 366.691148,327.140683 369.121131,326.917767 L374.092071,326.43902 C374.901316,326.359812 375.710426,326.27867 376.519268,326.193612 C379.189959,325.912313 382.726443,326.288391 385.240212,325.451177 C389.461939,324.044683 389.16082,318.305091 389.43831,314.581982 C389.980567,307.308916 391.617032,300.125162 392.818479,292.937762 C387.100244,293.369735 381.362621,293.710575 375.660745,294.319955 L375.187127,294.377259 C372.529414,294.728473 367.860942,295.738136 365.848016,294.00038 C360.926965,289.753349 378.851145,288.207914 381.573915,287.825856 L381.721298,287.803905 C385.308676,287.227941 391.448599,287.992856 393.749101,284.605725 C396.024156,281.256263 395.449182,275.627247 396.037485,271.738275 C396.922061,265.88507 397.934476,260.040372 398.525202,254.148891 L398.550541,253.836097 C398.701759,251.558543 398.539945,245.581642 400.53125,244.65642 C405.337039,242.422433 403.827202,265.443376 403.747833,267.171269 C403.612723,270.142222 403.464284,273.12715 403.050472,276.073194 C402.816605,277.733648 401.996252,279.979786 402.502157,281.648138 C403.951406,286.431434 412.183411,283.672518 415.932557,283.290972 C420.134896,282.862644 426.624408,284.490897 428.015494,279.306005 C429.690608,273.061458 429.526701,266.005047 430.08018,259.527612 L430.181133,258.388883 C430.380831,255.688446 430.94869,243.031581 434.220851,244.059191 Z M344.819209,207.237059 C342.637603,211.528587 340.949224,215.967327 338.554069,220.165562 C334.42382,227.404942 329.666876,234.320822 325.131368,241.31061 C315.789775,255.706374 305.137762,269.218268 294.180592,282.41272 C282.47721,296.506188 269.808607,309.795145 255.380038,321.144312 C258.690061,324.839728 262.287648,328.375817 265.425982,332.215415 C267.225382,334.417519 268.500008,337.064285 270.431057,339.15068 C274.532038,343.582976 278.618186,338.955042 282.276833,335.970987 L282.618566,335.696375 C297.347439,324.05218 311.206946,311.43385 325.239963,298.971212 C331.926136,293.033103 339.038802,287.556618 345.618201,281.505829 C352.283141,275.376891 357.832403,268.201726 364.07631,261.670533 C367.075108,258.534882 370.664809,255.424069 372.516383,251.41848 C374.09556,248.002341 374.444399,244.285722 376.243799,240.907749 C379.359685,235.058087 385.073964,228.267004 383.763545,221.191797 L383.528973,221.446781 C379.647904,225.80805 373.343925,239.595925 366.74629,232.934132 C361.941418,228.082233 366.848818,220.910097 366.635268,215.253082 C362.073067,217.188632 363.258511,225.03927 358.394792,226.428383 C355.764246,227.179582 353.514086,224.798159 352.287387,222.709946 C350.23072,219.209343 350.899732,215.550378 351.820613,211.839661 L351.907608,211.491633 C352.564031,208.882427 356.753734,200.274532 352.610139,199.212554 C349.018618,198.292335 346.009507,204.896831 344.819209,207.237059 Z M414.117965,290.084675 C410.697203,290.337418 405.534554,289.293635 402.511245,291.321661 C399.278303,293.490032 399.981723,301.082064 399.430983,304.645386 C398.381005,311.437874 397.115335,318.184795 395.827853,324.934754 C401.505919,325.507801 407.201161,325.82593 412.901212,326.025557 L414.801391,326.087897 C420.147619,326.251937 422.343911,325.240962 423.026731,319.684246 C423.835572,313.095897 424.112456,306.448616 424.921297,299.858445 C425.287851,296.864403 428.192409,290.880574 424.694095,289.277839 C421.762272,287.935138 417.188533,289.858663 414.117965,290.084675 Z M467,308.470864 L466.881114,309.887787 C466.547005,313.707501 466.053282,317.821357 464.848123,321.368554 C463.822047,324.385317 461.750872,325.30151 461.044724,321.460781 C460.597401,319.026498 463.571869,305.307874 467,308.470864 Z M217.432273,293.141951 C220.978965,296.678761 217.859686,300.792689 214.484436,302.987757 L214.016257,302.99792 C211.865327,303.024815 208.221598,302.805944 206.799341,301.449525 C203.950916,298.735164 209.50609,298.374746 211.131211,297.110477 C213.409356,295.338703 213.856413,289.57651 217.432273,293.141951 Z M192.932532,295.985646 C190.290508,296.336571 185.576677,290.156427 185,288.026422 C188.697894,287.484394 196.925224,295.455562 192.932532,295.985646 Z M205.999192,280.400662 C206.045289,281.078867 204.595109,281.42977 204.674221,282.085617 C204.824347,283.334583 206.673201,283.92646 207.268722,284.918925 C208.58248,287.109429 208.037417,291.435783 206.34118,293.5176 C202.472788,298.265659 198.177689,290.227808 201.172111,288.650918 C200.504954,289.002442 191.550965,284.450641 191.214583,283.422775 C189.373203,277.790317 199.975463,283.096714 200.42771,280.821745 L199.971495,280.483148 C197.662752,278.725676 191.185861,273.235859 196.533155,273.00251 C199.476497,272.873949 205.817296,277.715168 205.999192,280.400662 Z M271.517006,14.1188708 C262.801503,14.2436669 254.029578,14.8452321 245.368675,15.8217911 C236.943163,16.7710889 229.448897,19.5359869 221.292749,21.6235939 C217.187374,22.6740613 212.952777,23.5458159 208.961458,24.9894513 C205.459119,26.2555856 202.310472,28.2111269 198.771732,29.3942657 C191.025696,31.9822684 183.23052,34.8749914 176.242222,39.107757 C169.408626,43.2472285 163.252688,47.6617358 157.047001,52.7432354 C150.912021,57.76666 145.547611,63.567831 139.027847,68.103452 L138.088385,68.742568 C132.048376,72.759226 127.189099,78.105615 121.770362,82.871742 L120.992262,83.548464 C114.997699,88.699631 109.46967,95.012128 104.97299,101.521512 C100.57641,107.886714 98.9025923,116.122645 96.2465663,123.300839 L95.5607123,125.166661 C92.7110493,132.978275 90.0019183,141.243058 88.9233833,149.444997 C86.7526973,165.951389 91.6243033,185.243883 97.8184633,200.519277 C103.944674,215.62747 113.873529,228.233078 125.720693,239.294488 C131.274109,244.481118 137.314392,249.207345 144.047566,252.76981 L145.706626,253.633532 C151.62318,256.769747 159.078255,261.64728 165.349359,257.949068 C168.011452,256.379425 170.171824,254.554132 173.24949,253.847156 C176.612901,253.07536 179.908363,253.390984 182.623237,250.924749 C184.931032,248.829266 186.034575,246.299421 189.06492,245.033892 C192.657654,243.533311 196.906811,243.260093 200.753742,243.272209 C209.095491,243.2997 217.4412,245.316793 225.42774,247.614059 L226.28205,247.861188 C233.83759,250.058446 240.160971,253.371599 248.187897,251.363958 C254.152733,249.871858 263.72001,245.905041 265.005556,239.066705 C266.130745,233.085364 261.906593,225.389814 259.632691,219.936992 L259.487233,219.584594 C256.400467,212.027166 253.604298,204.591505 251.665363,196.645755 L251.168584,194.579495 C249.700985,188.311812 248.163484,179.681582 252.053029,174.52233 C256.315532,168.867738 266.17098,168.936195 272.294158,170.358021 C276.306711,171.28975 279.995906,173.167143 284.010886,174.112806 C288.101094,175.077249 292.332658,175.561287 296.505373,176.033816 C310.963669,177.669492 331.534224,173.972259 330.764352,155.495786 C330.078809,139.028771 321.00476,122.521772 326.318632,106.034766 C328.484465,99.314561 332.908344,91.542678 340.275208,89.768878 C346.118102,88.361591 354.014593,89.836729 359.169517,92.893019 L359.461285,93.070543 C363.492522,95.585743 367.237298,100.521747 360.271847,102.123077 C362.602088,105.273874 365.235061,108.182348 368.021522,110.935129 C370.896559,113.775753 372.12083,113.148138 375.560682,111.670578 C382.205515,108.81519 382.271706,105.525323 378.769678,99.936669 L378.451492,99.43754 C369.595239,85.767531 366.235469,69.488315 356.864149,56.097582 C347.630544,42.9043423 334.199957,32.2445823 320.100206,24.6368723 C304.969106,16.4730324 288.571875,13.8753369 271.517006,14.1188708 Z M69.9174453,175.674573 C55.3426683,178.518226 45.7038033,193.880857 43.0326103,207.504219 C41.8222923,213.677381 41.3945863,221.028835 43.7357473,227.002081 C46.3868993,233.767466 53.7946813,236.659559 60.4356163,238.128508 L60.7906163,238.205855 C68.4838713,239.857281 75.3010863,239.212098 81.3999973,233.878583 C83.9021713,231.689282 86.0476193,229.163292 87.8891193,226.409466 L88.2790933,225.815913 C90.2489693,222.763257 92.9893243,220.538738 91.0079213,217.126839 C86.0974873,208.673424 81.9071783,200.368432 78.6729903,191.0681 C77.3609163,187.295031 76.1817083,183.601067 75.2584353,179.74953 L74.9892553,178.589105 C74.2290903,175.194775 73.8608383,173.123525 69.9174453,175.674573 Z M391.377325,135.097091 C390.5662,135.301247 389.763568,135.532665 388.968216,135.791344 C389.139723,136.053552 389.299776,136.317742 389.448985,136.583808 L391,136 L390.338761,138.519223 L390.338761,138.519223 C393.178052,146.236061 388.587591,155.241241 390.097239,163.220416 C395.085934,160.270142 395.739324,148.794967 403.31367,150.916499 C411.471639,153.201599 407.412371,163.242831 409.881542,168.986476 C413.737573,165.616378 418.239107,168.765963 419.82981,172.763676 C421.552163,177.095794 419.16368,181.094718 419.966919,185.382006 C420.783616,189.744384 423.193577,187.001829 424.580236,184.421954 L424.649849,184.29095 C426.400715,180.955989 427.931358,176.447581 427.285855,172.633428 C426.500817,167.993561 423.386144,163.680223 421.456308,159.466237 L420.445013,157.244971 C418.868479,153.788254 417.233738,150.350605 414.948497,147.291357 C409.692866,140.256739 400.564822,133.936972 391.377325,135.097091 Z M412.459903,28.0430484 C417.2385,32.8843118 421.080603,40.0526634 424.778993,45.8596167 L425.205138,46.5233982 C430.320249,54.421438 434.837946,62.762883 438.081949,71.618742 C441.998567,82.316424 444.19872,94.722991 442.212387,106.068912 L442.082735,106.768601 C441.443165,110.029528 439.876566,115.346086 435.790568,114.557132 C430.185187,113.47465 432.946608,102.501405 432.861123,98.775834 C432.489254,82.544013 427.196537,66.935856 419.35995,52.8625748 C415.706786,46.3033264 411.259851,40.2066833 407.800566,33.5402345 L406.911011,31.7832987 C406.093941,30.2038168 404.480278,27.1986929 405.863059,25.8155101 C407.684634,23.9936869 411.176401,26.7428875 412.459903,28.0430484 Z M452.699408,54.16144 L452.788713,54.602717 C453.454363,57.701022 455.563542,64.667956 451.216388,65.314305 C446.109235,66.073692 444.47357,53.674779 443.050467,50.0882851 L442.990453,49.9420489 C442.231801,48.159697 438.191822,40.3100134 440.297553,38.6012994 C444.682502,35.0439386 451.659796,51.8962785 452.699408,54.16144 Z" id="Shape" fill="#FFFFFF"></path>
        </g>
    </g>
</svg>